<svg width="90" height="32" viewBox="0 0 90 32" fill="none" xmlns="http://www.w3.org/2000/svg">
<g filter="url(#filter0_ddi_3_194)">
<path d="M2.3 19.284C2.69867 19.2667 3.028 19.2147 3.288 19.128C3.56533 19.0413 3.77333 18.842 3.912 18.53C4.068 18.218 4.146 17.7153 4.146 17.022V7.064C4.146 6.596 4.15467 6.14533 4.172 5.712C4.20667 5.27867 4.23267 4.94933 4.25 4.724C3.97267 4.74133 3.626 4.75867 3.21 4.776C2.794 4.776 2.49067 4.78467 2.3 4.802V2.8C3.53067 2.78267 4.76133 2.774 5.992 2.774C7.22267 2.774 8.45333 2.76533 9.684 2.748C11.2093 2.73067 12.5353 2.93 13.662 3.346C14.806 3.762 15.6813 4.40333 16.288 5.27C16.912 6.13667 17.2067 7.26333 17.172 8.65C17.1547 9.34333 16.99 10.028 16.678 10.704C16.366 11.3627 15.9067 11.9693 15.3 12.524C14.6933 13.0613 13.9307 13.5033 13.012 13.85C12.0933 14.1967 11.0187 14.3873 9.788 14.422C9.40667 14.4393 9.06867 14.448 8.774 14.448C8.49667 14.448 8.21067 14.4393 7.916 14.422V16.71C7.916 17.1953 7.90733 17.6547 7.89 18.088C7.87267 18.5213 7.84667 18.8507 7.812 19.076C8.00267 19.0587 8.24533 19.05 8.54 19.05C8.83467 19.0327 9.12067 19.024 9.398 19.024C9.69267 19.0067 9.90067 18.998 10.022 18.998V21H2.3V19.284ZM7.916 12.472C8.10667 12.4893 8.29733 12.5067 8.488 12.524C8.67867 12.5413 8.878 12.55 9.086 12.55C10.0393 12.55 10.8107 12.394 11.4 12.082C12.0067 11.7527 12.4487 11.2847 12.726 10.678C13.0033 10.054 13.142 9.3 13.142 8.416C13.142 7.54933 13.0207 6.856 12.778 6.336C12.5527 5.816 12.258 5.43467 11.894 5.192C11.53 4.932 11.1487 4.76733 10.75 4.698C10.3513 4.61133 9.98733 4.568 9.658 4.568C9.294 4.568 8.982 4.61133 8.722 4.698C8.462 4.78467 8.26267 4.97533 8.124 5.27C7.98533 5.56467 7.916 6.01533 7.916 6.622V12.472ZM25.6456 21C25.6109 20.7573 25.5849 20.558 25.5676 20.402C25.5676 20.2287 25.5589 20.0293 25.5416 19.804C24.9522 20.3933 24.3282 20.8093 23.6696 21.052C23.0109 21.2947 22.3436 21.416 21.6676 21.416C20.5582 21.416 19.6916 21.0867 19.0676 20.428C18.4436 19.7693 18.1316 18.946 18.1316 17.958C18.1316 17.126 18.3396 16.4153 18.7556 15.826C19.1889 15.2367 19.7522 14.76 20.4456 14.396C21.1562 14.0147 21.9362 13.7287 22.7856 13.538C23.6522 13.33 24.5189 13.2087 25.3856 13.174V11.822C25.3856 11.3713 25.3249 10.964 25.2036 10.6C25.0996 10.236 24.9089 9.95 24.6316 9.742C24.3716 9.534 23.9989 9.43867 23.5136 9.456C23.1842 9.47333 22.8636 9.54267 22.5516 9.664C22.2396 9.78533 21.9709 9.95867 21.7456 10.184C21.8842 10.34 21.9709 10.5133 22.0056 10.704C22.0402 10.8773 22.0576 11.0333 22.0576 11.172C22.0576 11.5187 21.9189 11.8827 21.6416 12.264C21.3642 12.628 20.9222 12.8013 20.3156 12.784C19.7956 12.7667 19.3969 12.5847 19.1196 12.238C18.8422 11.8913 18.7036 11.484 18.7036 11.016C18.7036 10.3227 18.9462 9.72467 19.4316 9.222C19.9342 8.702 20.6016 8.30333 21.4336 8.026C22.2656 7.73133 23.1842 7.584 24.1896 7.584C25.7149 7.584 26.8936 7.98267 27.7256 8.78C28.5749 9.56 28.9996 10.8167 28.9996 12.55C28.9996 13.1393 28.9996 13.642 28.9996 14.058C28.9996 14.474 28.9909 14.89 28.9736 15.306C28.9736 15.722 28.9736 16.2247 28.9736 16.814C28.9736 17.0567 28.9649 17.4033 28.9476 17.854C28.9302 18.2873 28.9042 18.7033 28.8696 19.102C29.1642 19.0673 29.4762 19.05 29.8056 19.05C30.1349 19.0327 30.3862 19.024 30.5596 19.024V21H25.6456ZM25.3596 15.02C24.8742 15.072 24.4149 15.1587 23.9816 15.28C23.5482 15.4013 23.1669 15.566 22.8376 15.774C22.5256 15.982 22.2742 16.2333 22.0836 16.528C21.9102 16.8227 21.8236 17.152 21.8236 17.516C21.8409 18.0013 21.9969 18.348 22.2916 18.556C22.5862 18.764 22.9242 18.868 23.3056 18.868C23.7042 18.868 24.0769 18.7813 24.4236 18.608C24.7702 18.4347 25.0822 18.2093 25.3596 17.932C25.3596 17.7587 25.3596 17.594 25.3596 17.438C25.3596 17.2647 25.3596 17.0913 25.3596 16.918C25.3596 16.606 25.3596 16.294 25.3596 15.982C25.3596 15.6527 25.3596 15.332 25.3596 15.02ZM31.7923 27.63V25.94C32.2777 25.94 32.6243 25.8447 32.8323 25.654C33.0577 25.4633 33.1963 25.186 33.2483 24.822C33.3177 24.4753 33.3523 24.0767 33.3523 23.626V12.628C33.3523 12.316 33.361 11.9693 33.3783 11.588C33.3957 11.1893 33.4217 10.7993 33.4563 10.418C33.179 10.4353 32.8497 10.4527 32.4683 10.47C32.087 10.47 31.801 10.4787 31.6103 10.496V8.52C32.425 8.52 33.101 8.47667 33.6383 8.39C34.193 8.30333 34.6263 8.19933 34.9383 8.078C35.2677 7.95667 35.493 7.844 35.6143 7.74H36.8883C36.923 7.91333 36.949 8.13 36.9663 8.39C36.9837 8.63267 37.001 8.832 37.0183 8.988C37.625 8.468 38.223 8.104 38.8123 7.896C39.419 7.688 39.991 7.584 40.5283 7.584C41.5683 7.584 42.4783 7.85267 43.2583 8.39C44.0557 8.92733 44.671 9.69 45.1043 10.678C45.555 11.666 45.7803 12.8273 45.7803 14.162C45.7803 15.5487 45.5117 16.7967 44.9743 17.906C44.437 18.998 43.683 19.856 42.7123 20.48C41.759 21.104 40.6323 21.416 39.3323 21.416C38.8643 21.416 38.4397 21.364 38.0583 21.26C37.6943 21.1733 37.3477 21.0693 37.0183 20.948V23.444C37.0183 23.6867 37.0097 24.0247 36.9923 24.458C36.9923 24.9087 36.975 25.3333 36.9403 25.732C37.2177 25.6973 37.521 25.6713 37.8503 25.654C38.1797 25.654 38.431 25.654 38.6043 25.654V27.63H31.7923ZM38.9163 19.466C39.7137 19.4487 40.329 19.2147 40.7623 18.764C41.213 18.296 41.525 17.6893 41.6983 16.944C41.8717 16.1987 41.9583 15.4013 41.9583 14.552C41.9583 13.7547 41.863 13.0007 41.6723 12.29C41.4817 11.5793 41.1783 11.0073 40.7623 10.574C40.3463 10.1233 39.8003 9.90667 39.1243 9.924C38.691 9.94133 38.2923 10.054 37.9283 10.262C37.5643 10.4527 37.261 10.7213 37.0183 11.068C37.0183 11.6053 37.0183 12.1427 37.0183 12.68C37.0183 13.2 37.0183 13.72 37.0183 14.24C37.0183 14.76 37.0183 15.2887 37.0183 15.826C37.0183 16.346 37.0183 16.8747 37.0183 17.412C37.0183 17.932 37.0183 18.4607 37.0183 18.998C37.209 19.1193 37.4777 19.232 37.8243 19.336C38.171 19.44 38.535 19.4833 38.9163 19.466ZM53.8296 21.416C52.5642 21.416 51.4462 21.1387 50.4756 20.584C49.5049 20.012 48.7509 19.2147 48.2136 18.192C47.6762 17.152 47.4076 15.93 47.4076 14.526C47.4076 13.3127 47.6762 12.1773 48.2136 11.12C48.7509 10.0627 49.5049 9.21333 50.4756 8.572C51.4636 7.91333 52.6076 7.584 53.9076 7.584C54.6356 7.584 55.3462 7.688 56.0396 7.896C56.7329 8.08667 57.3569 8.42467 57.9116 8.91C58.4836 9.39533 58.9342 10.054 59.2636 10.886C59.6102 11.718 59.7749 12.758 59.7576 14.006L51.2296 14.162C51.2296 15.098 51.3422 15.9387 51.5676 16.684C51.8102 17.4293 52.2002 18.0187 52.7376 18.452C53.2749 18.8853 53.9942 19.102 54.8956 19.102C55.2422 19.102 55.6322 19.0413 56.0656 18.92C56.5162 18.7987 56.9669 18.5993 57.4176 18.322C57.8856 18.0273 58.3189 17.6373 58.7176 17.152L59.8876 18.244C59.2636 19.128 58.5962 19.804 57.8856 20.272C57.1749 20.7227 56.4642 21.026 55.7536 21.182C55.0602 21.338 54.4189 21.416 53.8296 21.416ZM51.3856 12.342H56.1696C56.1522 11.614 56.0482 11.042 55.8576 10.626C55.6842 10.1927 55.4416 9.88067 55.1296 9.69C54.8176 9.49933 54.4536 9.404 54.0376 9.404C53.2749 9.404 52.6769 9.68133 52.2436 10.236C51.8102 10.7733 51.5242 11.4753 51.3856 12.342ZM61.6578 19.31C62.1431 19.31 62.4898 19.2147 62.6978 19.024C62.9058 18.8333 63.0358 18.5647 63.0878 18.218C63.1571 17.854 63.1918 17.4467 63.1918 16.996V12.628C63.1918 12.316 63.2005 11.9693 63.2178 11.588C63.2351 11.1893 63.2611 10.7993 63.2958 10.418C63.0185 10.4353 62.6891 10.4527 62.3078 10.47C61.9438 10.47 61.6665 10.4787 61.4758 10.496V8.52H62.5158C63.1918 8.52 63.8071 8.43333 64.3618 8.26C64.9338 8.08667 65.3065 7.91333 65.4798 7.74H66.7538C66.7885 7.91333 66.8145 8.24267 66.8318 8.728C66.8491 9.196 66.8578 9.612 66.8578 9.976C67.3258 9.404 67.7678 8.94467 68.1838 8.598C68.5998 8.25133 69.0071 8 69.4058 7.844C69.8218 7.67067 70.2378 7.584 70.6538 7.584C71.2605 7.584 71.7891 7.75733 72.2398 8.104C72.6905 8.43333 72.9158 8.97933 72.9158 9.742C72.9158 10.002 72.8551 10.2793 72.7338 10.574C72.6125 10.8513 72.4218 11.0853 72.1618 11.276C71.9018 11.4667 71.5465 11.562 71.0958 11.562C70.7491 11.562 70.3938 11.458 70.0298 11.25C69.6658 11.042 69.4578 10.6433 69.4058 10.054C69.0591 10.054 68.7125 10.2013 68.3658 10.496C68.0191 10.7733 67.7071 11.1113 67.4298 11.51C67.1698 11.8913 66.9878 12.2467 66.8838 12.576V16.814C66.8838 17.0567 66.8751 17.4033 66.8578 17.854C66.8405 18.2873 66.8145 18.7033 66.7798 19.102C67.0571 19.0673 67.3605 19.05 67.6898 19.05C68.0365 19.0327 68.2965 19.024 68.4698 19.024V21H61.6578V19.31ZM77.2621 28.046C76.6034 28.046 76.0401 27.8467 75.5721 27.448C75.1214 27.0667 74.8961 26.5553 74.8961 25.914C74.8961 25.446 75.0434 25.03 75.3381 24.666C75.6501 24.3193 76.0487 24.1373 76.5341 24.12C76.9154 24.1027 77.2361 24.224 77.4961 24.484C77.7734 24.7613 77.9121 25.134 77.9121 25.602C77.9121 25.654 77.9121 25.706 77.9121 25.758C77.9121 25.81 77.9034 25.8707 77.8861 25.94C77.9207 25.94 77.9641 25.9313 78.0161 25.914C78.1721 25.862 78.3367 25.7147 78.5101 25.472C78.7007 25.2467 78.8827 24.9433 79.0561 24.562C79.2467 24.1633 79.4287 23.7127 79.6021 23.21C79.7927 22.7247 79.9574 22.2133 80.0961 21.676L75.9881 13.434C75.5027 12.4633 75.1821 11.7353 75.0261 11.25C74.8874 10.7473 74.7921 10.3053 74.7401 9.924L73.5441 9.976V8H80.0181V9.664C79.3767 9.73333 79.0214 9.976 78.9521 10.392C78.9001 10.808 78.9781 11.2413 79.1861 11.692L81.7341 17.516C81.9074 17.0653 82.1327 16.372 82.4101 15.436C82.6874 14.4827 83.0167 13.4513 83.3981 12.342C83.4674 12.1167 83.5541 11.8567 83.6581 11.562C83.7794 11.25 83.9094 10.9467 84.0481 10.652C84.1867 10.34 84.3341 10.0887 84.4901 9.898L83.0081 9.976V8H87.6361V9.664C87.0987 9.78533 86.6481 10.1147 86.2841 10.652C85.9374 11.1893 85.6254 11.848 85.3481 12.628L82.0981 21.91C81.6127 23.314 81.1534 24.4667 80.7201 25.368C80.2867 26.2867 79.8014 26.9627 79.2641 27.396C78.7267 27.8293 78.0594 28.046 77.2621 28.046Z" fill="#ECE6DA"/>
</g>
<defs>
<filter id="filter0_ddi_3_194" x="0.299988" y="0.722046" width="89.3361" height="30.324" filterUnits="userSpaceOnUse" color-interpolation-filters="sRGB">
<feFlood flood-opacity="0" result="BackgroundImageFix"/>
<feColorMatrix in="SourceAlpha" type="matrix" values="0 0 0 0 0 0 0 0 0 0 0 0 0 0 0 0 0 0 127 0" result="hardAlpha"/>
<feOffset dy="1"/>
<feGaussianBlur stdDeviation="1"/>
<feComposite in2="hardAlpha" operator="out"/>
<feColorMatrix type="matrix" values="0 0 0 0 1 0 0 0 0 1 0 0 0 0 1 0 0 0 1 0"/>
<feBlend mode="normal" in2="BackgroundImageFix" result="effect1_dropShadow_3_194"/>
<feColorMatrix in="SourceAlpha" type="matrix" values="0 0 0 0 0 0 0 0 0 0 0 0 0 0 0 0 0 0 127 0" result="hardAlpha"/>
<feOffset dy="-1"/>
<feGaussianBlur stdDeviation="0.5"/>
<feComposite in2="hardAlpha" operator="out"/>
<feColorMatrix type="matrix" values="0 0 0 0 1 0 0 0 0 1 0 0 0 0 1 0 0 0 1 0"/>
<feBlend mode="normal" in2="effect1_dropShadow_3_194" result="effect2_dropShadow_3_194"/>
<feBlend mode="normal" in="SourceGraphic" in2="effect2_dropShadow_3_194" result="shape"/>
<feColorMatrix in="SourceAlpha" type="matrix" values="0 0 0 0 0 0 0 0 0 0 0 0 0 0 0 0 0 0 127 0" result="hardAlpha"/>
<feOffset dy="1"/>
<feGaussianBlur stdDeviation="1"/>
<feComposite in2="hardAlpha" operator="arithmetic" k2="-1" k3="1"/>
<feColorMatrix type="matrix" values="0 0 0 0 0 0 0 0 0 0 0 0 0 0 0 0 0 0 0.25 0"/>
<feBlend mode="normal" in2="shape" result="effect3_innerShadow_3_194"/>
</filter>
</defs>
</svg>
